<?xml version="1.0" encoding="UTF-8"?>
<svg id="Layer_1" data-name="Layer 1" xmlns="http://www.w3.org/2000/svg" viewBox="0 0 1000 1000">
  <defs>
    <style>
      .cls-1 {
        fill: #fff;
      }

      .cls-2 {
        fill: #151517;
      }

      .cls-3 {
        fill: #d9d9d9;
      }
    </style>
  </defs>
  <path class="cls-3" d="m570.62,526.73c48.92-9.46,94.96-28.59,123.16-56.65,31.7-31.55,33.69-69.29,33.69-113.08,0-60.99-32.3-116.98-89.01-150.36-37.57-22.12-88.39-33.23-138.45-33.23-53.96,0-106.1,12.92-145.1,38.26-51.79,33.65-82.36,87.49-82.36,145.33,0,50.21,16.74,102.57,57.21,135.71,29.18,23.9,70.55,34.43,114.71,38.55-31.02,56.08-114.36,209.54-131.68,270.16,0,0,116.94,52.18,411.19,6.29,0,0-35.41-55.39-74.18-139.25-20.77-44.91-49.04-92.77-79.16-141.72Z"/>
  <g>
    <ellipse class="cls-1" cx="438.89" cy="353.26" rx="50.97" ry="63.73"/>
    <ellipse class="cls-2" cx="444.42" cy="356.3" rx="29.04" ry="37.59"/>
    <circle class="cls-1" cx="452.23" cy="347.82" r="9.88"/>
  </g>
  <g>
    <ellipse class="cls-1" cx="561.11" cy="353.26" rx="50.97" ry="63.73"/>
    <ellipse class="cls-2" cx="566.64" cy="356.3" rx="29.04" ry="37.59"/>
    <circle class="cls-1" cx="574.45" cy="347.82" r="9.88"/>
  </g>
</svg>