<?xml version="1.0" encoding="UTF-8"?>
<svg id="Layer_1" data-name="Layer 1" xmlns="http://www.w3.org/2000/svg" viewBox="0 0 612 792">
  <defs>
    <style>
      .cls-1 {
        fill: #eaa6ca;
      }

      .cls-2, .cls-3 {
        fill: #fff;
      }

      .cls-3, .cls-4 {
        opacity: .9;
      }

      .cls-5 {
        fill: #fddd3c;
      }

      .cls-6 {
        fill: #0ab36f;
      }

      .cls-7 {
        stroke: #931d1e;
      }

      .cls-7, .cls-8 {
        stroke-width: 9px;
      }

      .cls-7, .cls-8, .cls-4 {
        fill: none;
        stroke-linecap: round;
        stroke-linejoin: round;
      }

      .cls-9 {
        fill: #3d6eb6;
      }

      .cls-8 {
        stroke: #f05124;
      }

      .cls-4 {
        stroke: #fff;
        stroke-width: 10px;
      }

      .cls-10 {
        fill: #f05023;
      }
    </style>
  </defs>
  <rect class="cls-1" x=".89" width="594.9" height="792"/>
  <g>
    <g>
      <path class="cls-9" d="m149.81,719.52c21.18,11.38,46.95,9.93,66.73-3.75,55.69-38.51,162.6-119.54,149.31-165.63-17.88-61.98-23.84-89.39-29.8-138.85-3.8-31.52,7.41-74.89,16.04-102.21,4.4-13.93-3.87-28.71-18.06-32.17-92.45-22.54-134.17-45.57-150.26-56.67-5.06-3.49-11.78-3.35-16.63.42-31.55,24.57-102.12,45.96-139.76,56.16-12.82,3.47-19.89,17.22-15.17,29.63,11.68,30.68,20.91,83.19,17.53,113.18-5.08,44.98-43.5,125.15-40.52,138.85,2.81,12.91-14.22,67.09,160.6,161.03Z"/>
      <path class="cls-6" d="m176.71,410.24l57.13-38.13c7.9-5.28,18.1,2.13,15.53,11.28l-18.61,66.11,53.92,42.55c7.46,5.89,3.56,17.88-5.93,18.26l-68.63,2.73-23.8,64.43c-3.29,8.91-15.9,8.91-19.19,0l-23.8-64.43-68.63-2.73c-9.5-.38-13.39-12.37-5.93-18.26l53.92-42.55-18.61-66.11c-2.58-9.15,7.62-16.56,15.53-11.28l57.13,38.13Z"/>
      <path class="cls-5" d="m143.31,419.6l23.8-64.43c3.29-8.91,15.9-8.91,19.19,0l23.8,64.43,68.63,2.73c9.5.38,13.39,12.37,5.93,18.26l-53.92,42.55,18.61,66.11c2.58,9.15-7.62,16.56-15.53,11.28l-57.13-38.13-57.13,38.13c-7.9,5.28-18.1-2.13-15.53-11.28l18.61-66.11-53.92-42.55c-7.46-5.89-3.56-17.88,5.93-18.26l68.63-2.73Z"/>
      <path class="cls-4" d="m183.49,259.72s69.13,39.33,131.11,45.89"/>
      <path class="cls-4" d="m323.36,337.96s-15.71,50.31-6.17,71.76"/>
      <path class="cls-4" d="m316.39,455.38s3.18,40.47,21.04,87.2c3.14,8.22,2.75,17.36-.98,25.34-7.45,15.91-25.15,45.78-54.32,61.58"/>
      <circle class="cls-3" cx="263.21" cy="648.24" r="7.81"/>
      <g id="crown">
        <path class="cls-2" d="m145.85,137.12l-37.56-12.21c-5.21-1.69-9.79,3.88-7.13,8.66l32.02,57.48h88.09l31.72-57.1c2.64-4.76-1.88-10.31-7.07-8.67l-38.1,11.97-25.92-39.76c-2.31-3.54-7.49-3.56-9.83-.03l-26.22,39.68Z"/>
        <circle class="cls-2" cx="177.01" cy="75.49" r="12.8"/>
        <circle class="cls-2" cx="266.68" cy="114.5" r="12.8"/>
        <circle class="cls-2" cx="86.74" cy="114.5" r="12.8"/>
      </g>
    </g>
    <g>
      <polygon class="cls-5" points="377.54 629.37 571.89 370.37 574.55 277.47 487.81 310.34 307.05 579.04 377.54 629.37"/>
      <line class="cls-8" x1="551.61" y1="309.74" x2="353.6" y2="588.3"/>
      <path class="cls-10" d="m262.3,609.7l100.95,72.08c8.2,5.86,19.59,3.95,25.43-4.27h0c5.84-8.21,3.92-19.62-4.28-25.48l-100.95-72.08c-8.2-5.86-19.59-3.95-25.43,4.27h0c-5.84,8.21-3.92,19.62,4.28,25.48Z"/>
      <polygon class="cls-10" points="253.58 672.42 306.95 710.52 350.41 663.26 283.95 615.81 253.58 672.42"/>
      <path class="cls-10" d="m246.91,680.2l54.88,39.18c4.59,3.28,10.95,2.21,14.22-2.39h0c3.27-4.59,2.19-10.98-2.39-14.25l-54.88-39.18c-4.59-3.28-10.95-2.21-14.22,2.39h0c-3.27,4.59-2.19,10.98,2.39,14.25Z"/>
      <path class="cls-8" d="m518.24,313.28l-9.45,4.04c-6.66,2.85-12.41,7.49-16.61,13.4l-7.91,11.13"/>
      <ellipse class="cls-10" cx="474.73" cy="355.89" rx="5.21" ry="5.22" transform="translate(-53.7 86.09) rotate(-9.81)"/>
      <path class="cls-7" d="m325.23,636.6s-46.64-29.53-53.12-43.25"/>
      <line class="cls-7" x1="322.28" y1="669.73" x2="304.53" y2="689.36"/>
    </g>
  </g>
</svg>