<?xml version="1.0" encoding="UTF-8"?>
<svg id="Layer_1" data-name="Layer 1" xmlns="http://www.w3.org/2000/svg" viewBox="0 0 612 792">
  <defs>
    <style>
      .cls-1 {
        fill: #eaa6ca;
      }

      .cls-2 {
        stroke: #931d1e;
      }

      .cls-2, .cls-3 {
        stroke-width: 8px;
      }

      .cls-2, .cls-3, .cls-4 {
        stroke-linecap: round;
        stroke-linejoin: round;
      }

      .cls-2, .cls-3, .cls-4, .cls-5 {
        fill: none;
      }

      .cls-6 {
        fill: #fff;
      }

      .cls-6, .cls-4 {
        opacity: .9;
      }

      .cls-7 {
        fill: #fddd3c;
      }

      .cls-3 {
        stroke: #f05124;
      }

      .cls-8 {
        fill: #0ab36f;
      }

      .cls-9 {
        fill: #3d6eb6;
      }

      .cls-4 {
        stroke-width: 10px;
      }

      .cls-4, .cls-5 {
        stroke: #fff;
      }

      .cls-5 {
        stroke-miterlimit: 10;
        stroke-width: 14px;
      }

      .cls-10 {
        fill: #f05023;
      }
    </style>
  </defs>
  <rect class="cls-9" width="594.9" height="792"/>
  <g>
    <path class="cls-8" d="m400.21,527.52c16.82,9.04,37.29,7.89,53-2.97,44.23-30.59,129.15-94.94,118.59-131.55-14.2-49.23-18.93-71-23.67-110.29-3.02-25.03,5.88-59.48,12.74-81.18,3.49-11.06-3.07-22.8-14.35-25.55-73.43-17.91-106.57-36.19-119.34-45.01-4.02-2.77-9.36-2.66-13.21.33-25.06,19.51-81.11,36.51-111,44.6-10.18,2.76-15.8,13.68-12.05,23.53,9.28,24.37,16.61,66.07,13.92,89.9-4.03,35.73-34.55,99.4-32.19,110.29,2.23,10.26-11.3,53.29,127.56,127.9Z"/>
    <path class="cls-10" d="m421.57,281.87l45.37-30.29c6.28-4.19,14.38,1.7,12.33,8.96l-14.78,52.51,42.83,33.79c5.93,4.68,2.83,14.2-4.71,14.5l-54.51,2.17-18.91,51.17c-2.62,7.08-12.63,7.08-15.25,0l-18.91-51.17-54.51-2.17c-7.54-.3-10.64-9.82-4.71-14.5l42.83-33.79-14.78-52.51c-2.05-7.27,6.06-13.15,12.33-8.96l45.37,30.29Z"/>
    <path class="cls-7" d="m395.04,289.3l18.91-51.17c2.62-7.08,12.63-7.08,15.25,0l18.91,51.17,54.51,2.17c7.54.3,10.64,9.82,4.71,14.5l-42.83,33.79,14.78,52.51c2.05,7.27-6.06,13.15-12.33,8.96l-45.37-30.29-45.37,30.29c-6.28,4.19-14.38-1.7-12.33-8.96l14.78-52.51-42.83-33.79c-5.93-4.68-2.83-14.2,4.71-14.5l54.51-2.17Z"/>
    <path class="cls-4" d="m426.96,162.32s54.91,31.24,104.13,36.45"/>
    <path class="cls-4" d="m538.05,224.46s-12.47,39.96-4.9,57"/>
    <path class="cls-4" d="m532.51,317.73s2.52,32.14,16.71,69.26c2.5,6.53,2.18,13.79-.78,20.12-5.92,12.64-19.98,36.36-43.14,48.91"/>
    <circle class="cls-6" cx="491.26" cy="467.12" r="5.22"/>
    <ellipse class="cls-5" cx="422.61" cy="71.96" rx="71.95" ry="26.03"/>
  </g>
  <g>
    <g>
      <polygon class="cls-1" points="170.24 674.24 403.84 454.07 422.12 363.78 331.85 381.23 109.89 613.17 170.24 674.24"/>
      <line class="cls-3" x1="394.27" y1="391.42" x2="153.8" y2="630.08"/>
      <path class="cls-10" d="m61,635.56l86.43,87.46c7.02,7.11,18.47,7.16,25.56.12h0c7.09-7.04,7.15-18.5.12-25.61l-86.43-87.46c-7.02-7.11-18.47-7.16-25.56-.12h0c-7.09,7.04-7.15,18.5-.12,25.61Z"/>
      <polygon class="cls-10" points="41.89 695.35 87.59 741.59 138.02 702.76 81.12 645.19 41.89 695.35"/>
      <path class="cls-10" d="m34.06,701.83l46.99,47.55c3.93,3.97,10.33,4.01,14.29.07h0c3.97-3.94,4-10.35.07-14.33l-46.99-47.55c-3.93-3.97-10.33-4.01-14.29-.07h0c-3.97,3.94-4,10.35-.07,14.33Z"/>
      <path class="cls-3" d="m361.08,389.25l-9.91,2.35c-6.99,1.66-13.39,5.22-18.49,10.28l-9.61,9.53"/>
      <ellipse class="cls-10" cx="311.37" cy="423.52" rx="5.16" ry="5.17"/>
      <path class="cls-2" d="m117.93,672.47s-40.57-36.72-44.59-51.22"/>
      <line class="cls-2" x1="109.45" y1="704.33" x2="88.8" y2="720.51"/>
    </g>
    <g>
      <polygon class="cls-7" points="351.01 674.24 117.41 454.07 99.12 363.78 189.4 381.23 411.36 613.17 351.01 674.24"/>
      <line class="cls-3" x1="126.98" y1="391.42" x2="367.45" y2="630.08"/>
      <path class="cls-10" d="m460.25,635.56l-86.43,87.46c-7.02,7.11-18.47,7.16-25.56.12h0c-7.09-7.04-7.15-18.5-.12-25.61l86.43-87.46c7.02-7.11,18.47-7.16,25.56-.12h0c7.09,7.04,7.15,18.5.12,25.61Z"/>
      <polygon class="cls-10" points="479.36 695.35 433.66 741.59 383.23 702.76 440.13 645.19 479.36 695.35"/>
      <path class="cls-10" d="m487.19,701.83l-46.99,47.55c-3.93,3.97-10.33,4.01-14.29.07h0c-3.97-3.94-4-10.35-.07-14.33l46.99-47.55c3.93-3.97,10.33-4.01,14.29-.07h0c3.97,3.94,4,10.35.07,14.33Z"/>
      <path class="cls-3" d="m160.17,389.25l9.91,2.35c6.99,1.66,13.39,5.22,18.49,10.28l9.61,9.53"/>
      <ellipse class="cls-10" cx="209.88" cy="423.52" rx="5.16" ry="5.17"/>
      <path class="cls-2" d="m403.32,672.47s40.57-36.72,44.59-51.22"/>
      <line class="cls-2" x1="411.8" y1="704.33" x2="432.45" y2="720.51"/>
    </g>
  </g>
</svg>