<?xml version="1.0" encoding="UTF-8"?>
<svg id="Layer_1" data-name="Layer 1" xmlns="http://www.w3.org/2000/svg" viewBox="0 0 612 792">
  <defs>
    <style>
      .cls-1 {
        fill: #eaa6ca;
      }

      .cls-2 {
        fill: #fff;
      }

      .cls-3 {
        fill: #fddd3c;
      }

      .cls-4 {
        stroke: #3d6eb6;
      }

      .cls-4, .cls-5, .cls-6 {
        fill: none;
        stroke-linecap: round;
        stroke-linejoin: round;
        stroke-width: 9px;
      }

      .cls-7 {
        fill: #0ab36f;
      }

      .cls-8 {
        fill: #3d6eb6;
      }

      .cls-5 {
        stroke: #fff;
      }

      .cls-6 {
        stroke: #e2542c;
      }

      .cls-9 {
        fill: #f05023;
      }
    </style>
  </defs>
  <rect class="cls-9" width="594.9" height="792"/>
  <g>
    <g>
      <path class="cls-7" d="m163.17,335.43s23.63-35.74,37.75-40.64c14.12-4.9,12.1,13.55,12.1,13.55l149.57,124.79c13.26-8.65,25.07-1.44,25.07-1.44l87.4,70.52c3.26,2.63,5.24,6.51,5.45,10.69l1.39,27.15c57.06-6.05,54.25,10.07,54.25,10.07,3.68,17.38-52.52,36.33-52.52,36.33,0,0,27.09,36,20.75,58.64,0,0-24.5,158.66-46.11,173.79-21.61,15.13-105.48-75.22-105.48-75.22,0,0,90.78-82.14,67.44-133.15,0,0-6.92,14.61-17.58,18.3-27.17,9.4-40.35-3.75-59.66-18.16-19.31-14.41,4.61-67.73,4.61-67.73,0,0-11.53-5.19-23.63-17.87-12.1-12.68,12.97-49.28,12.97-49.28l-159.09-128.25c-23.06,6.05-14.7-12.1-14.7-12.1Zm192.01,265.16s18.37,20.73,37.39,13.38c0,0,12.97-8,19.89-29.4l-13.4-8.21s-.22,23.56-14.7,24.21c-14.48.65-6.48-14.27-6.48-14.27,0,0,11.46-12.97,4.54-17.51-6.92-4.54-21.4-13.62-21.4-13.62,0,0-16.86,37.65-5.84,45.41Z"/>
      <line class="cls-4" x1="195.02" y1="334.27" x2="342.43" y2="450.99"/>
      <path class="cls-4" d="m520.97,553.02s-15.99,11.67-20.75,12.54"/>
      <path class="cls-4" d="m469.09,538.32v-17.15c0-3.92-1.78-7.62-4.83-10.07l-25.86-20.76"/>
      <path class="cls-4" d="m349.02,486.01s-21.42,28.1,2.43,41.07"/>
      <path class="cls-4" d="m421.97,498.11s-28.15,32.97-31.31,47.73"/>
      <path class="cls-4" d="m409.87,560.15s14.05,9.08,17.51,15.78"/>
      <path class="cls-4" d="m482.49,628.67s.43,112.83-39.77,159.09"/>
      <path class="cls-4" d="m396.03,727.66s-19.02,16.86-3.46,31.99"/>
    </g>
    <g>
      <path class="cls-1" d="m360.56,333.42s-23.63-35.74-37.75-40.64c-14.12-4.9-12.1,13.55-12.1,13.55l-149.57,124.79c-13.26-8.65-25.07-1.44-25.07-1.44l-87.4,70.52c-3.26,2.63-5.24,6.51-5.45,10.69l-1.39,27.15c-57.06-6.05-54.25,10.07-54.25,10.07-3.68,17.38,52.52,36.33,52.52,36.33,0,0-27.09,36-20.75,58.64,0,0,24.5,158.66,46.11,173.79,21.61,15.13,105.48-75.22,105.48-75.22,0,0-90.78-82.14-67.44-133.15,0,0,6.92,14.61,17.58,18.3,27.17,9.4,40.35-3.75,59.66-18.16,19.31-14.41-4.61-67.73-4.61-67.73,0,0,11.53-5.19,23.63-17.87,12.1-12.68-12.97-49.28-12.97-49.28l159.09-128.25c23.06,6.05,14.7-12.1,14.7-12.1Zm-192.01,265.16s-18.37,20.73-37.39,13.38c0,0-12.97-8-19.89-29.4l13.4-8.21s.22,23.56,14.7,24.21c14.48.65,6.48-14.27,6.48-14.27,0,0-11.46-12.97-4.54-17.51,6.92-4.54,21.4-13.62,21.4-13.62,0,0,16.86,37.65,5.84,45.41Z"/>
      <line class="cls-6" x1="328.71" y1="332.26" x2="181.3" y2="448.98"/>
      <path class="cls-6" d="m2.76,551.01s15.99,11.67,20.75,12.54"/>
      <path class="cls-6" d="m54.64,536.31v-17.15c0-3.92,1.78-7.62,4.83-10.07l25.86-20.76"/>
      <path class="cls-6" d="m174.71,484s21.42,28.1-2.43,41.07"/>
      <path class="cls-6" d="m101.76,496.1s28.15,32.97,31.31,47.73"/>
      <path class="cls-6" d="m113.86,558.14s-14.05,9.08-17.51,15.78"/>
      <path class="cls-6" d="m41.24,626.66s-.43,112.83,39.77,159.09"/>
      <path class="cls-6" d="m127.7,725.65s19.02,16.86,3.46,31.99"/>
    </g>
  </g>
  <g>
    <path class="cls-3" d="m246.64,295.64s123.65,73.87,267.79,0c0,0-7.8-127.77,37.56-184.84l-28.78-10.73s-42.92,96.58-84.87,96.09c-41.95-.49-41.46-110.24-41.46-110.24h-23.9s2.44,104.39-41.46,112.68c-43.9,8.29-106.82-98.59-106.34-102.71s-22.93,11-22.93,11c0,0,44.39,77.01,44.39,188.74Z"/>
    <circle class="cls-3" cx="213.47" cy="94.87" r="24.88"/>
    <circle class="cls-3" cx="384.95" cy="78.82" r="24.88"/>
    <circle class="cls-3" cx="540.25" cy="95.89" r="24.88"/>
    <path class="cls-9" d="m376.08,210.04l-22.89,35.18c-1.62,2.48-1.6,5.69.03,8.16l22.84,34.6c2.93,4.44,9.45,4.46,12.4.03l23.33-34.93c1.67-2.5,1.67-5.77,0-8.27l-23.28-34.86c-2.97-4.44-9.51-4.4-12.43.08Z"/>
    <path class="cls-5" d="m382.52,217.74s11.92,13.95,15.21,26.18"/>
    <circle class="cls-2" cx="400.75" cy="255.15" r="4.57"/>
    <path class="cls-7" d="m278.45,220.8l-16.57,25.46c-1.17,1.8-1.16,4.12.02,5.91l16.53,25.05c2.12,3.22,6.84,3.23,8.98.02l16.88-25.28c1.21-1.81,1.21-4.17,0-5.99l-16.85-25.23c-2.15-3.22-6.89-3.19-9,.05Z"/>
    <path class="cls-5" d="m283.11,229.5s4.9,5.74,8.34,12.36"/>
    <circle class="cls-2" cx="296.46" cy="252" r="4.15"/>
    <path class="cls-5" d="m213.47,80.92s16.34,2.38,13.78,22.77"/>
    <path class="cls-5" d="m390.13,65.92s10.14,11.98,2.48,24.88"/>
    <path class="cls-5" d="m549.19,85.92s7.96,16.18-4.02,25"/>
    <path class="cls-8" d="m471.88,220.8l-16.57,25.46c-1.17,1.8-1.16,4.12.02,5.91l16.53,25.05c2.12,3.22,6.84,3.23,8.98.02l16.88-25.28c1.21-1.81,1.21-4.17,0-5.99l-16.85-25.23c-2.15-3.22-6.89-3.19-9,.05Z"/>
    <path class="cls-5" d="m476.54,229.5s4.9,5.74,8.34,12.36"/>
    <circle class="cls-2" cx="489.89" cy="252" r="4.15"/>
  </g>
</svg>