<svg width="27" height="39" viewBox="0 0 27 39" fill="none" xmlns="http://www.w3.org/2000/svg">
<path d="M13.5 0.149902C10.8427 0.14988 8.25018 0.970492 6.07688 2.49957C3.90359 4.02865 2.25554 6.19158 1.35799 8.69272C0.460438 11.1939 0.357194 13.9112 1.06237 16.4732C1.76754 19.0352 3.24671 21.317 5.29771 23.0066C7.55951 24.8749 9.19996 26.9024 9.19996 29.0803V30.4649C9.19976 30.8262 9.32086 31.177 9.54386 31.4612C9.76686 31.7454 10.0788 31.9465 10.4298 32.0323C12.4469 32.5251 14.553 32.5251 16.5702 32.0323C16.9211 31.9465 17.2331 31.7454 17.4561 31.4612C17.6791 31.177 17.8002 30.8262 17.8 30.4649V29.0803C17.8 26.9024 19.4383 24.8728 21.7022 23.0066C23.7532 21.317 25.2324 19.0352 25.9376 16.4732C26.6427 13.9112 26.5395 11.1939 25.6419 8.69272C24.7444 6.19158 23.0963 4.02865 20.923 2.49957C18.7498 0.970492 16.1573 0.14988 13.5 0.149902ZM11.0554 35.44C10.8461 35.4081 10.6325 35.4177 10.4268 35.4684C10.2212 35.519 10.0276 35.6097 9.85697 35.7351C9.51243 35.9886 9.28267 36.3685 9.21824 36.7913C9.1538 37.2141 9.25997 37.6452 9.51338 37.9897C9.7668 38.3343 10.1467 38.564 10.5695 38.6285C12.512 38.9238 14.4879 38.9238 16.4304 38.6285C16.8532 38.564 17.2331 38.3343 17.4865 37.9897C17.74 37.6452 17.8461 37.2141 17.7817 36.7913C17.7173 36.3685 17.4875 35.9886 17.143 35.7351C16.7984 35.4817 16.3673 35.3756 15.9445 35.44C14.3242 35.6867 12.6758 35.6867 11.0554 35.44Z" fill="#0270ED"/>
</svg>
