<svg width="37" height="37" viewBox="0 0 37 37" fill="none" xmlns="http://www.w3.org/2000/svg">
<path fill-rule="evenodd" clip-rule="evenodd" d="M31.2279 31.2279C27.8523 34.6036 23.2739 36.5 18.5 36.5C13.7261 36.5 9.14773 34.6036 5.77208 31.2279C2.39642 27.8523 0.5 23.2739 0.5 18.5C0.5 13.7261 2.39642 9.14773 5.77208 5.77208C9.14773 2.39642 13.7261 0.5 18.5 0.5C23.2739 0.5 27.8523 2.39642 31.2279 5.77208C34.6036 9.14773 36.5 13.7261 36.5 18.5C36.5 23.2739 34.6036 27.8523 31.2279 31.2279ZM16.3592 11.7523C16.766 11.7721 17.1599 11.9019 17.4988 12.128L24.2488 16.628C24.5569 16.8335 24.8096 17.1118 24.9843 17.4384C25.1591 17.765 25.2505 18.1296 25.2505 18.5C25.2505 18.8704 25.1591 19.235 24.9843 19.5616C24.8096 19.8882 24.5569 20.1665 24.2488 20.372L17.4988 24.872C17.1599 25.0981 16.766 25.2279 16.3592 25.2477C15.9523 25.2675 15.5477 25.1764 15.1885 24.9842C14.8294 24.792 14.5291 24.506 14.3198 24.1565C14.1105 23.8071 13.9999 23.4073 14 23V14C13.9999 13.5927 14.1105 13.1929 14.3198 12.8435C14.5291 12.494 14.8294 12.208 15.1885 12.0158C15.5477 11.8236 15.9523 11.7326 16.3592 11.7523Z" fill="#0270ED"/>
</svg>
